<?xml version="1.0" encoding="iso-8859-1"?>
<!-- Generator: Adobe Illustrator 19.0.0, SVG Export Plug-In . SVG Version: 6.00 Build 0)  -->
<svg version="1.1" id="Capa_1" xmlns="http://www.w3.org/2000/svg" xmlns:xlink="http://www.w3.org/1999/xlink" x="0px" y="0px"
	 viewBox="0 0 512.002 512.002" style="enable-background:new 0 0 512.002 512.002;" xml:space="preserve">
<g>
	<g>
		<path d="M508.207,222.384c-3.857-4.411-9.889-6.245-15.549-4.726c-19.308,5.186-75.953,14.662-105.776-3.524
			c-7.274-4.436-13.483-8.324-18.962-11.755c-26.767-16.762-37.847-23.699-62.357-23.699c-18.353,0-35.911,6.679-49.56,18.419
			c-13.65-11.74-31.208-18.419-49.56-18.419c-24.51,0-35.59,6.938-62.357,23.699c-5.479,3.43-11.688,7.319-18.962,11.755
			c-29.702,18.112-86.435,8.682-105.776,3.524c-5.661-1.519-11.691,0.313-15.549,4.726c-3.857,4.412-4.867,10.635-2.603,16.041
			c0.475,1.135,11.999,28.085,43.331,52.884c28.251,22.36,79.012,47.61,160.35,40.917c19.041-1.567,37.169-9.356,51.126-21.566
			c13.957,12.21,32.085,20,51.126,21.566c9.076,0.747,17.764,1.096,26.09,1.096c66.296-0.002,109.162-22.147,134.259-42.013
			c31.333-24.799,42.857-51.75,43.332-52.884C513.074,233.019,512.064,226.796,508.207,222.384z"/>
	</g>
</g>
<g>
</g>
<g>
</g>
<g>
</g>
<g>
</g>
<g>
</g>
<g>
</g>
<g>
</g>
<g>
</g>
<g>
</g>
<g>
</g>
<g>
</g>
<g>
</g>
<g>
</g>
<g>
</g>
<g>
</g>
</svg>
