<?xml version="1.0" encoding="iso-8859-1"?>
<!-- Generator: Adobe Illustrator 19.0.0, SVG Export Plug-In . SVG Version: 6.00 Build 0)  -->
<svg version="1.1" id="Capa_1" xmlns="http://www.w3.org/2000/svg" xmlns:xlink="http://www.w3.org/1999/xlink" x="0px" y="0px"
	 viewBox="0 0 512.001 512.001" style="enable-background:new 0 0 512.001 512.001;" xml:space="preserve">
<g>
	<g>
		<path d="M470.218,159.659C444.571,96.394,395.66,46.859,332.495,20.177C292.332,3.211,248.327-3.24,205.246,1.525
			c-18.368,2.031-32.9,15.609-36.161,33.787c-3.253,18.138,5.634,35.881,22.115,44.151c31.723,15.917,56.581,42.823,69.997,75.762
			c30.531,74.958-5.539,160.805-80.403,191.367c-32.893,13.427-69.478,14.45-103.019,2.88c-17.422-6.01-36.334,0.042-47.056,15.061
			c-10.702,14.991-10.283,34.805,1.04,49.306c26.682,34.168,62.01,61.167,102.167,78.08c32.005,13.48,65.722,20.081,99.223,20.081
			c57.539-0.001,114.432-19.478,160.852-57.037c8.587-6.948,9.917-19.542,2.968-28.13c-6.948-8.589-19.543-9.916-28.13-2.968
			c-61.963,50.137-146.025,62.086-219.386,31.189c-33.879-14.269-63.675-37.034-86.165-65.835c-0.396-0.507-0.544-0.697-0.011-1.443
			c0.567-0.795,0.864-0.691,1.454-0.487c42.714,14.734,89.302,13.434,131.18-3.661c95.269-38.892,141.175-148.121,102.332-243.492
			c-17.073-41.917-48.717-76.162-89.104-96.427c-0.598-0.299-0.845-0.423-0.682-1.335c0.176-0.978,0.534-1.017,1.184-1.089
			c36.303-4.014,73.405,1.429,107.287,15.742c53.315,22.52,94.587,64.307,116.216,117.66c21.631,53.358,21.12,112.131-1.438,165.493
			c-1.086,2.569-2.236,5.151-3.42,7.677c-4.687,10.004-0.378,21.911,9.626,26.599c10.004,4.686,21.911,0.375,26.598-9.626
			c1.398-2.985,2.758-6.036,4.042-9.073C495.269,292.557,495.861,222.915,470.218,159.659z"/>
	</g>
</g>
<g>
</g>
<g>
</g>
<g>
</g>
<g>
</g>
<g>
</g>
<g>
</g>
<g>
</g>
<g>
</g>
<g>
</g>
<g>
</g>
<g>
</g>
<g>
</g>
<g>
</g>
<g>
</g>
<g>
</g>
</svg>
